<svg xmlns="http://www.w3.org/2000/svg" xmlns:xlink="http://www.w3.org/1999/xlink" width="158.859" height="158.859" viewBox="0 0 158.859 158.859"><defs><style>.a{fill:#fff;}.b{fill:#666;}.c{fill:#e4002b;}.d{filter:url(#a);}</style><filter id="a" x="0" y="0" width="158.859" height="158.859" filterUnits="userSpaceOnUse"><feOffset dy="3" input="SourceAlpha"/><feGaussianBlur stdDeviation="3" result="b"/><feFlood flood-opacity="0.161"/><feComposite operator="in" in2="b"/><feComposite in="SourceGraphic"/></filter></defs><g transform="translate(-604.448 -1103)"><g transform="translate(613.448 1109)"><g class="d" transform="matrix(1, 0, 0, 1, -9, -6)"><ellipse class="a" cx="70.43" cy="70.43" rx="70.43" ry="70.43" transform="translate(9 6)"/></g></g><g transform="translate(657.217 1160.675)"><path class="b" d="M17.083,28H13.817a.817.817,0,0,0-.817.817V30.45a2.45,2.45,0,0,0,2.45,2.45h3.267a.817.817,0,0,0,.817-.817V30.45A2.45,2.45,0,0,0,17.083,28Zm.817,3.267H15.45a.817.817,0,0,1-.817-.817v-.817h2.45a.817.817,0,0,1,.817.817Z" transform="translate(-4.017 -14.117)"/><path class="b" d="M48.717,28H45.45A2.45,2.45,0,0,0,43,30.45v1.633a.817.817,0,0,0,.817.817h3.267a2.45,2.45,0,0,0,2.45-2.45V28.817A.817.817,0,0,0,48.717,28ZM47.9,30.45a.817.817,0,0,1-.817.817h-2.45V30.45a.817.817,0,0,1,.817-.817H47.9Z" transform="translate(-9.517 -14.117)"/><path class="b" d="M34.617,28H26.45a2.45,2.45,0,0,0,0,4.9h8.167a2.45,2.45,0,0,0,0-4.9ZM31.35,29.633v1.633H29.717V29.633Zm-5.717.817a.817.817,0,0,1,.817-.817h1.633v1.633H26.45A.817.817,0,0,1,25.633,30.45Zm8.983.817H32.983V29.633h1.633a.817.817,0,0,1,0,1.633Z" transform="translate(-6.033 -14.117)"/><path class="b" d="M50.183,44.483v-.817a.817.817,0,0,0-.239-.577l-1.633-1.633a.817.817,0,0,0-.577-.239H45.95a2.422,2.422,0,0,0,.15-.817V37.95h1.633a1.633,1.633,0,0,0,1.633-1.633V33.05a1.633,1.633,0,0,0-1.633-1.633h-.15a2.422,2.422,0,0,0,.15-.817V24.356a2.435,2.435,0,0,0-.933-1.922h.3a1.626,1.626,0,0,0,1.584-1.239l.408-1.633A1.633,1.633,0,0,0,47.5,17.533H40.792l-3.675-4.9A4.1,4.1,0,0,0,33.85,11H19.15a4.1,4.1,0,0,0-3.267,1.633l-3.675,4.9H5.5a1.633,1.633,0,0,0-1.584,2.028l.408,1.633A1.628,1.628,0,0,0,5.9,22.433h.3a2.435,2.435,0,0,0-.933,1.922V30.6a2.422,2.422,0,0,0,.15.817h-.15A1.633,1.633,0,0,0,3.633,33.05v3.267A1.633,1.633,0,0,0,5.267,37.95H6.9V40.4a2.422,2.422,0,0,0,.15.817H5.267a.817.817,0,0,0-.577.239L3.056,43.089a.817.817,0,0,0-.239.577v.817A.817.817,0,0,0,2,45.3v6.533a.817.817,0,0,0,.817.817H50.183A.817.817,0,0,0,51,51.833V45.3A.817.817,0,0,0,50.183,44.483ZM44.467,40.4a.817.817,0,0,1-.817.817H40.383a.817.817,0,0,1-.817-.817V37.95h4.9Zm-29.4-2.45H37.933V40.4a2.422,2.422,0,0,0,.15.817H14.916a2.422,2.422,0,0,0,.15-.817ZM47.505,19.167,47.1,20.8H43.251c-.012-.014-.028-.024-.039-.04l-1.195-1.593ZM17.19,13.613a2.464,2.464,0,0,1,1.96-.98h14.7a2.464,2.464,0,0,1,1.96.98L41.2,20.8H23.968a4.083,4.083,0,0,0-8,0H11.8ZM22.266,20.8h-4.6a2.435,2.435,0,0,1,4.6,0ZM5.9,20.8l-.408-1.633h5.489L9.789,20.759c-.011.016-.028.026-.04.041Zm1,9.8v-.817H9.35V28.15H6.9V26.517H9.35V24.883H6.9v-.528a.817.817,0,0,1,.513-.758l2.632-1.053c.07-.028.129-.078.2-.112H42.758c.068.034.127.082.2.112L45.586,23.6a.817.817,0,0,1,.514.759v.528H43.65v1.633H46.1V28.15H43.65v1.633H46.1V30.6a.817.817,0,0,1-.817.817H7.717A.817.817,0,0,1,6.9,30.6ZM5.267,33.05H47.733v3.267H5.267ZM8.533,40.4V37.95h4.9V40.4a.817.817,0,0,1-.817.817H9.35A.817.817,0,0,1,8.533,40.4ZM4.45,44,5.6,42.85H47.4L48.55,44v.479H4.45Zm44.917,7.012H3.633v-4.9H49.367Z" transform="translate(-2 -11)"/></g><g transform="translate(641.756 1143)"><g transform="translate(58.655 0.012)"><g transform="translate(0 0)"><path class="c" d="M383.553,20.445a2.1,2.1,0,0,0-2.927.464L378.4,23.971a2.1,2.1,0,0,0,3.391,2.464l2.225-3.062A2.1,2.1,0,0,0,383.553,20.445Z" transform="translate(-378.001 -20.045)"/></g></g><g transform="translate(14.367)"><g transform="translate(0 0)"><path class="c" d="M98.606,23.892,96.381,20.83a2.1,2.1,0,0,0-3.391,2.464l2.225,3.062a2.1,2.1,0,1,0,3.391-2.464Z" transform="translate(-92.59 -19.966)"/></g></g><g transform="translate(0 43.064)"><path class="c" d="M7.689,298.942A2.1,2.1,0,0,0,5.048,297.6l-3.6,1.17a2.1,2.1,0,1,0,1.3,3.986l3.6-1.17A2.1,2.1,0,0,0,7.689,298.942Z" transform="translate(0 -297.493)"/></g><g transform="translate(37.629 67.782)"><path class="c" d="M244.595,456.786a2.1,2.1,0,0,0-2.1,2.1v3.785a2.1,2.1,0,1,0,4.191,0v-3.785A2.1,2.1,0,0,0,244.595,456.786Z" transform="translate(-242.499 -456.786)"/></g><g transform="translate(71.656 43.067)"><path class="c" d="M468.127,298.786l-3.6-1.17a2.1,2.1,0,0,0-1.3,3.987l3.6,1.17a2.1,2.1,0,0,0,1.3-3.987Z" transform="translate(-461.783 -297.513)"/></g></g></g></svg>