<svg xmlns="http://www.w3.org/2000/svg" width="118.55" height="118.55" viewBox="0 0 118.55 118.55"><defs><style>.a{fill:#e4002b;}</style></defs><path class="a" d="M107.275,48a59.275,59.275,0,1,0,59.275,59.275A59.259,59.259,0,0,0,107.275,48Zm0,106.695a47.42,47.42,0,1,1,47.421-47.42A47.561,47.561,0,0,1,107.275,154.695Zm20.746-53.347a8.891,8.891,0,1,0-8.891-8.891A8.732,8.732,0,0,0,128.021,101.347Zm-41.492,0a8.891,8.891,0,1,0-8.892-8.891A8.732,8.732,0,0,0,86.529,101.347Zm20.746,38.529a32.3,32.3,0,0,0,30.23-20.746H77.044A32.3,32.3,0,0,0,107.275,139.876Z" transform="translate(-48 -48)"/></svg>