<?xml version="1.0" encoding="utf-8"?>
<!-- Generator: Adobe Illustrator 23.0.3, SVG Export Plug-In . SVG Version: 6.00 Build 0)  -->
<svg version="1.1" id="Capa_1" xmlns="http://www.w3.org/2000/svg" xmlns:xlink="http://www.w3.org/1999/xlink" x="0px" y="0px"
	 viewBox="0 0 405 357" style="enable-background:new 0 0 405 357;" xml:space="preserve">
<style type="text/css">
	.st0{fill:none;stroke:#FFFFFF;stroke-width:6;stroke-linecap:round;stroke-linejoin:round;}
	.st1{fill:#FFFFFF;}
</style>
<g transform="translate(-1015.017 -87.237)">
	<g transform="translate(1120.902 203.044)">
		<path class="st0" d="M188.6,156.7L98.2,0L7.7,156.7"/>
		<g transform="translate(180.593 148.539)">
			<path class="st1" d="M14.7,3.9c2.2,3.8,0.9,8.6-2.9,10.7C8,16.8,3.2,15.5,1.1,11.8C-1.1,8,0.2,3.2,3.9,1.1l0,0
				C7.7-1.1,12.5,0.2,14.7,3.9z"/>
		</g>
		<g transform="translate(0 148.539)">
			<path class="st1" d="M1.1,3.9c-2.2,3.8-0.9,8.6,2.9,10.7c3.8,2.2,8.6,0.9,10.7-2.9c2.2-3.8,0.9-8.6-2.9-10.7
				C8-1.1,3.2,0.2,1.1,3.9C1.1,3.9,1.1,3.9,1.1,3.9z"/>
		</g>
	</g>
	<g transform="translate(1018.017 87.237)">
		<path class="st0" d="M197.2,7.5L0,349.2h394.5"/>
		<g transform="translate(189.189)">
			<path class="st1" d="M1.1,3.9c2.2-3.8,7-5,10.7-2.9c3.8,2.2,5,7,2.9,10.7c-2.2,3.8-7,5-10.7,2.9c0,0,0,0,0,0
				C0.2,12.5-1.1,7.7,1.1,3.9z"/>
		</g>
		<g transform="translate(386.238 341.297)">
			<path class="st1" d="M7.9,15.7c4.3,0,7.9-3.5,7.9-7.9c0-4.3-3.5-7.9-7.9-7.9C3.5,0,0,3.5,0,7.9c0,0,0,0,0,0
				C0,12.2,3.5,15.7,7.9,15.7z"/>
		</g>
	</g>
	<g transform="translate(1076.675 143.908)">
		<path class="st0" d="M7.5,258h283.6L146.5,7.5"/>
		<g transform="translate(0 250.117)">
			<circle class="st1" cx="7.9" cy="7.9" r="7.9"/>
		</g>
		<g transform="translate(138.832 0)">
			<path class="st1" d="M14.7,3.9c-2.2-3.8-7-5-10.7-2.9c-3.8,2.2-5,7-2.9,10.7c2.2,3.8,7,5,10.7,2.9c0,0,0,0,0,0
				C15.5,12.5,16.8,7.7,14.7,3.9z"/>
		</g>
	</g>
</g>
</svg>
