<svg xmlns="http://www.w3.org/2000/svg" width="23.381" height="19.002" viewBox="0 0 23.381 19.002"><defs><style>.a{fill:#e4002b;}</style></defs><g transform="translate(8.029 0)"><path class="a" d="M188.393,50.734a9.488,9.488,0,0,0-12.119-1.1.457.457,0,0,0,.52.751,8.551,8.551,0,0,1,2.82-1.275,5.912,5.912,0,0,0-.517.76,12.9,12.9,0,0,0-1.406,4.48.457.457,0,0,0,.9.133c.056-.377.122-.744.2-1.1h5.767a19.182,19.182,0,0,1,.4,3.608h-1.279a.457.457,0,1,0,0,.913h1.279a19.183,19.183,0,0,1-.4,3.608H182.3a.457.457,0,1,0,0,.913h2.033a11.4,11.4,0,0,1-.428,1.241c-.579,1.4-1.32,2.238-2.057,2.353q-.17,0-.34,0c-1.289-.194-2.51-2.592-2.947-5.845a.457.457,0,0,0-.905.122,13.324,13.324,0,0,0,1.4,4.651,6.047,6.047,0,0,0,.551.826,8.459,8.459,0,0,1-3.05-1.436.457.457,0,1,0-.546.732,9.488,9.488,0,0,0,5.669,1.876h0q.325,0,.651-.022a9.5,9.5,0,0,0,6.065-16.193Zm1.857,6.26h-4.372a20.3,20.3,0,0,0-.384-3.608h3.75A8.521,8.521,0,0,1,190.249,56.994Zm-11.228-4.521a9.587,9.587,0,0,1,.867-2.145c.545-.944,1.18-1.463,1.788-1.463.793,0,1.606.863,2.229,2.367a11.393,11.393,0,0,1,.428,1.241Zm5.728-1.591a7.187,7.187,0,0,0-1.01-1.769,8.575,8.575,0,0,1,4.008,2.266,8.691,8.691,0,0,1,.926,1.093H185.28A12.586,12.586,0,0,0,184.749,50.883Zm3,12.639a8.531,8.531,0,0,1-3.993,2.248,7.225,7.225,0,0,0,.995-1.75,12.589,12.589,0,0,0,.531-1.591h3.393A8.673,8.673,0,0,1,187.747,63.522Zm-2.254-2.006a20.3,20.3,0,0,0,.384-3.608h4.372a8.52,8.52,0,0,1-1.007,3.608Z" transform="translate(-175.823 -47.948)"/></g><g transform="translate(12.132 13.568)"><path class="a" d="M266.45,345.186a.456.456,0,1,0,.134.323A.46.46,0,0,0,266.45,345.186Z" transform="translate(-265.67 -345.052)"/></g><g transform="translate(0 3.423)"><g transform="translate(0)"><path class="a" d="M14.245,128.705a3.836,3.836,0,0,0-3.027-1.494H9.56l-1.673-4.025a.457.457,0,0,0-.422-.281H5.741a.457.457,0,0,0-.457.457v3.849H3.617l-1.167-1.4a.457.457,0,0,0-.351-.164H.456a.457.457,0,0,0-.4.683l1.51,2.651-1.51,2.651a.457.457,0,0,0,.4.683H2.1a.457.457,0,0,0,.351-.164l1.167-1.4H5.284v3.854a.457.457,0,0,0,.457.457H7.465a.457.457,0,0,0,.422-.282l1.673-4.029h1.658a3.836,3.836,0,0,0,3.027-1.494A.457.457,0,0,0,14.245,128.705ZM6.2,123.818H7.16l1.411,3.393H6.2v-3.393Zm.963,10.334H6.2v-3.4H8.572Zm4.058-4.311H3.475a.469.469,0,0,0-.088,0,.457.457,0,0,0-.329.164l-1.171,1.4H1.242l1.25-2.194a.457.457,0,0,0,0-.452l-1.25-2.194h.645l1.171,1.4a.457.457,0,0,0,.33.164.465.465,0,0,0,.088,0h7.743a2.92,2.92,0,0,1,2.059.859A2.92,2.92,0,0,1,11.218,129.841Z" transform="translate(0 -122.905)"/></g></g><g transform="translate(0.069 3.423)"><path class="a" d="M2.28,123.036a.456.456,0,1,0,.134.323A.46.46,0,0,0,2.28,123.036Z" transform="translate(-1.501 -122.902)"/></g><g transform="translate(1.735 3.423)"><path class="a" d="M40.4,122.9H38.457a.457.457,0,1,0,0,.913H40.4a.457.457,0,0,0,0-.913Z" transform="translate(-38 -122.905)"/></g><g transform="translate(0.411 14.67)"><g transform="translate(0 0)"><path class="a" d="M12.275,369.2H9.457a.457.457,0,1,0,0,.913h2.818a.457.457,0,1,0,0-.913Z" transform="translate(-9 -369.198)"/></g></g></svg>