<svg xmlns="http://www.w3.org/2000/svg" xmlns:xlink="http://www.w3.org/1999/xlink" width="158.859" height="158.859" viewBox="0 0 158.859 158.859"><defs><style>.a{fill:#fff;}.b{fill:#e4002b;}.c{fill:#666;}.d{filter:url(#a);}</style><filter id="a" x="0" y="0" width="158.859" height="158.859" filterUnits="userSpaceOnUse"><feOffset dy="3" input="SourceAlpha"/><feGaussianBlur stdDeviation="3" result="b"/><feFlood flood-opacity="0.161"/><feComposite operator="in" in2="b"/><feComposite in="SourceGraphic"/></filter></defs><g transform="translate(-603 -1103)"><g transform="translate(612 1109)"><g class="d" transform="matrix(1, 0, 0, 1, -9, -6)"><ellipse class="a" cx="70.43" cy="70.43" rx="70.43" ry="70.43" transform="translate(9 6)"/></g></g><g transform="translate(0)"><g transform="translate(643 1142)"><g transform="translate(58.655 0.012)"><g transform="translate(0 0)"><path class="b" d="M383.553,20.445a2.1,2.1,0,0,0-2.927.464L378.4,23.971a2.1,2.1,0,0,0,3.391,2.464l2.225-3.062A2.1,2.1,0,0,0,383.553,20.445Z" transform="translate(-378.001 -20.045)"/></g></g><g transform="translate(14.367)"><g transform="translate(0 0)"><path class="b" d="M98.606,23.892,96.381,20.83a2.1,2.1,0,0,0-3.391,2.464l2.225,3.062a2.1,2.1,0,1,0,3.391-2.464Z" transform="translate(-92.59 -19.966)"/></g></g><g transform="translate(0 43.064)"><path class="b" d="M7.689,298.942A2.1,2.1,0,0,0,5.048,297.6l-3.6,1.17a2.1,2.1,0,1,0,1.3,3.986l3.6-1.17A2.1,2.1,0,0,0,7.689,298.942Z" transform="translate(0 -297.493)"/></g><g transform="translate(37.629 67.782)"><path class="b" d="M244.595,456.786a2.1,2.1,0,0,0-2.1,2.1v3.785a2.1,2.1,0,1,0,4.191,0v-3.785A2.1,2.1,0,0,0,244.595,456.786Z" transform="translate(-242.499 -456.786)"/></g><g transform="translate(71.656 43.067)"><path class="b" d="M468.127,298.786l-3.6-1.17a2.1,2.1,0,0,0-1.3,3.987l3.6,1.17a2.1,2.1,0,0,0,1.3-3.987Z" transform="translate(-461.783 -297.513)"/></g></g><g transform="translate(659.407 1155.107)"><g transform="translate(0 0)"><path class="c" d="M71.3,22.464a3.183,3.183,0,0,0-1.764-5.429L58.974,15.5a.636.636,0,0,1-.479-.348L53.772,5.584a3.183,3.183,0,0,0-5.708,0l-4.723,9.569a.637.637,0,0,1-.479.348L32.3,17.036a3.183,3.183,0,0,0-1.764,5.429l7.641,7.448a.637.637,0,0,1,.183.563l-1.8,10.517a3.183,3.183,0,0,0,4.618,3.355l9.445-4.966a.636.636,0,0,1,.593,0l9.445,4.966a3.183,3.183,0,0,0,4.618-3.355l-1.8-10.517a.637.637,0,0,1,.183-.563ZM60.964,30.907l1.8,10.517a.636.636,0,0,1-.924.671L52.4,37.13a3.183,3.183,0,0,0-2.962,0L39.992,42.1a.636.636,0,0,1-.924-.671l1.8-10.517a3.182,3.182,0,0,0-.915-2.817l-7.641-7.448a.637.637,0,0,1,.353-1.086l10.56-1.534a3.182,3.182,0,0,0,2.4-1.741l4.723-9.569a.637.637,0,0,1,1.142,0h0l4.723,9.569a3.182,3.182,0,0,0,2.4,1.741l10.56,1.534a.637.637,0,0,1,.353,1.086L61.879,28.09A3.182,3.182,0,0,0,60.964,30.907Z" transform="translate(-29.574 -3.81)"/></g></g></g></g></svg>