<svg xmlns="http://www.w3.org/2000/svg" xmlns:xlink="http://www.w3.org/1999/xlink" width="158.859" height="158.859" viewBox="0 0 158.859 158.859"><defs><style>.a{fill:#fff;}.b{fill:#e4002b;}.c{fill:#666;}.d{filter:url(#a);}</style><filter id="a" x="0" y="0" width="158.859" height="158.859" filterUnits="userSpaceOnUse"><feOffset dy="3" input="SourceAlpha"/><feGaussianBlur stdDeviation="3" result="b"/><feFlood flood-opacity="0.161"/><feComposite operator="in" in2="b"/><feComposite in="SourceGraphic"/></filter></defs><g transform="translate(-281 -1103)"><g transform="translate(290 1109)"><g class="d" transform="matrix(1, 0, 0, 1, -9, -6)"><ellipse class="a" cx="70.43" cy="70.43" rx="70.43" ry="70.43" transform="translate(9 6)"/></g></g><g transform="translate(321 1142)"><g transform="translate(58.655 0.012)"><g transform="translate(0 0)"><path class="b" d="M383.553,20.445a2.1,2.1,0,0,0-2.927.464L378.4,23.971a2.1,2.1,0,0,0,3.391,2.464l2.225-3.062A2.1,2.1,0,0,0,383.553,20.445Z" transform="translate(-378.001 -20.045)"/></g></g><g transform="translate(14.367)"><g transform="translate(0 0)"><path class="b" d="M98.606,23.892,96.381,20.83a2.1,2.1,0,0,0-3.391,2.464l2.225,3.062a2.1,2.1,0,1,0,3.391-2.464Z" transform="translate(-92.59 -19.966)"/></g></g><g transform="translate(0 43.064)"><path class="b" d="M7.689,298.942A2.1,2.1,0,0,0,5.048,297.6l-3.6,1.17a2.1,2.1,0,1,0,1.3,3.986l3.6-1.17A2.1,2.1,0,0,0,7.689,298.942Z" transform="translate(0 -297.493)"/></g><g transform="translate(37.629 67.782)"><path class="b" d="M244.595,456.786a2.1,2.1,0,0,0-2.1,2.1v3.785a2.1,2.1,0,1,0,4.191,0v-3.785A2.1,2.1,0,0,0,244.595,456.786Z" transform="translate(-242.499 -456.786)"/></g><g transform="translate(71.656 43.067)"><path class="b" d="M468.127,298.786l-3.6-1.17a2.1,2.1,0,0,0-1.3,3.987l3.6,1.17a2.1,2.1,0,0,0,1.3-3.987Z" transform="translate(-461.783 -297.513)"/></g></g><g transform="translate(336 1154.999)"><g transform="translate(0 0.001)"><g transform="translate(0 0)"><path class="c" d="M48.1,47.145H43.886v-7.57a.958.958,0,1,0-1.916,0v7.57h-11.5V28.939a.958.958,0,0,0-.958-.958H19.547a.958.958,0,0,0-.958.958V47.145H7.091V25.49h.369a.958.958,0,0,0,.678-.281L24.53,8.816,40.923,25.209a.958.958,0,0,0,.678.281h.369v7.187a.958.958,0,0,0,1.916,0V25.49H48.1a.958.958,0,0,0,.678-1.636L25.208.282a.958.958,0,0,0-1.355,0L14.845,9.289A.958.958,0,1,0,16.2,10.644l8.33-8.33L45.789,23.573H42L25.208,6.783a.958.958,0,0,0-1.355,0L7.062,23.573H3.271l7.563-7.563a.958.958,0,0,0-1.355-1.355l-9.2,9.2A.958.958,0,0,0,.958,25.49H5.174V47.145H.958a.958.958,0,1,0,0,1.916H48.1a.958.958,0,1,0,0-1.916Zm-19.548,0H20.506V29.9h8.049Z" transform="translate(0 -0.001)"/></g></g><g transform="translate(32.579 27.981)"><path class="c" d="M346.325,292h-5.366a.958.958,0,0,0-.958.958v9.582a.958.958,0,0,0,.958.958h5.366a.958.958,0,0,0,.958-.958V292.96A.958.958,0,0,0,346.325,292Zm-.958,9.582h-3.45v-7.666h3.45Z" transform="translate(-340.001 -292.002)"/></g><g transform="translate(9.199 27.981)"><path class="c" d="M102.325,292H96.959a.958.958,0,0,0-.958.958v9.582a.958.958,0,0,0,.958.958h5.366a.958.958,0,0,0,.958-.958V292.96A.958.958,0,0,0,102.325,292Zm-.958,9.582h-3.45v-7.666h3.45Z" transform="translate(-96.001 -292.002)"/></g><g transform="translate(20.122 15.747)"><path class="c" d="M214.409,164.322a4.408,4.408,0,1,0,4.408,4.408A4.413,4.413,0,0,0,214.409,164.322Zm0,6.9a2.491,2.491,0,1,1,2.491-2.491A2.494,2.494,0,0,1,214.409,171.221Z" transform="translate(-210.001 -164.322)"/></g><g transform="translate(21.751 37.563)"><path class="c" d="M228.637,392.283a.957.957,0,1,0,.281.677A.965.965,0,0,0,228.637,392.283Z" transform="translate(-227.001 -392.002)"/></g><g transform="translate(11.786 11.787)"><path class="c" d="M124.637,123.283a.957.957,0,1,0,.281.677A.965.965,0,0,0,124.637,123.283Z" transform="translate(-123.001 -123.002)"/></g><g transform="translate(41.97 34.912)"><path class="c" d="M439.637,364.612a.959.959,0,1,0,.281.677A.966.966,0,0,0,439.637,364.612Z" transform="translate(-438.001 -364.331)"/></g></g></g></svg>