<svg xmlns="http://www.w3.org/2000/svg" xmlns:xlink="http://www.w3.org/1999/xlink" width="158.859" height="158.859" viewBox="0 0 158.859 158.859"><defs><style>.a{fill:#fff;}.b{fill:#e4002b;}.c{fill:#666;stroke:#666;}.d{filter:url(#a);}</style><filter id="a" x="0" y="0" width="158.859" height="158.859" filterUnits="userSpaceOnUse"><feOffset dy="3" input="SourceAlpha"/><feGaussianBlur stdDeviation="3" result="b"/><feFlood flood-opacity="0.161"/><feComposite operator="in" in2="b"/><feComposite in="SourceGraphic"/></filter></defs><g transform="translate(-926 -1103)"><g transform="translate(935 1109)"><g class="d" transform="matrix(1, 0, 0, 1, -9, -6)"><ellipse class="a" cx="70.43" cy="70.43" rx="70.43" ry="70.43" transform="translate(9 6)"/></g></g><g transform="translate(972.314 1148.33)"><g transform="translate(49.371 0.01)"><g transform="translate(0 0)"><path class="b" d="M382.674,20.382a1.764,1.764,0,0,0-2.464.39l-1.873,2.577a1.764,1.764,0,0,0,2.854,2.074l1.873-2.577A1.764,1.764,0,0,0,382.674,20.382Z" transform="translate(-378.001 -20.045)"/></g></g><g transform="translate(12.093)"><g transform="translate(0 0)"><path class="b" d="M97.654,23.271l-1.873-2.577a1.764,1.764,0,0,0-2.854,2.074L94.8,25.344a1.764,1.764,0,1,0,2.854-2.074Z" transform="translate(-92.59 -19.966)"/></g></g><g transform="translate(0 36.248)"><path class="b" d="M6.472,298.713a1.764,1.764,0,0,0-2.223-1.133l-3.03.984a1.764,1.764,0,1,0,1.09,3.355l3.03-.985A1.764,1.764,0,0,0,6.472,298.713Z" transform="translate(0 -297.493)"/></g><g transform="translate(31.673 57.053)"><path class="b" d="M244.263,456.786a1.764,1.764,0,0,0-1.764,1.764v3.186a1.764,1.764,0,1,0,3.528,0V458.55A1.764,1.764,0,0,0,244.263,456.786Z" transform="translate(-242.499 -456.786)"/></g><g transform="translate(60.314 36.25)"><path class="b" d="M467.123,298.584l-3.03-.985a1.764,1.764,0,0,0-1.09,3.355l3.03.985a1.764,1.764,0,0,0,1.09-3.355Z" transform="translate(-461.783 -297.513)"/></g></g><g transform="translate(982.966 1156.966)"><path class="c" d="M333.978,286.716h-2.207V272.741a.736.736,0,0,0-1.338-.421l-10.3,14.711a.736.736,0,0,0,.6,1.157H330.3v2.207a.736.736,0,1,0,1.471,0v-2.207h2.207a.736.736,0,1,0,0-1.471Zm-3.678,0h-8.15l8.15-11.642Z" transform="translate(-290.582 -246.997)"/><path class="c" d="M219.033,289.64h-8.708l8.1-9.533a.8.8,0,0,0,.051-.068,5.116,5.116,0,0,0-1.155-6.946A5.884,5.884,0,0,0,208,277.872a.736.736,0,1,0,1.471,0,4.413,4.413,0,0,1,6.988-3.585,3.631,3.631,0,0,1,.809,4.9L208.175,289.9a.736.736,0,0,0,.56,1.211h10.3a.736.736,0,1,0,0-1.471Z" transform="translate(-188.876 -246.979)"/><path class="c" d="M19.876,39a.736.736,0,0,0-.707-.763h0A18.366,18.366,0,0,1,1.5,20.6H4.413a.736.736,0,0,0,0-1.471H1.5A18.344,18.344,0,0,1,19.124,1.5v2.18a.736.736,0,1,0,1.471,0V1.5A18.358,18.358,0,0,1,38.213,18.783l-2.869-2.869a.736.736,0,0,0-1.04,1.04L38.41,21.06a.723.723,0,0,0,.29.211.843.843,0,0,0,.088.021.728.728,0,0,0,.156.038h.042a.709.709,0,0,0,.165-.032.692.692,0,0,0,.09-.017.725.725,0,0,0,.266-.166l4.162-4.16a.736.736,0,0,0-1.04-1.04l-2.94,2.938A19.829,19.829,0,0,0,19.912.01c-.018,0-.034-.01-.052-.01s-.034.01-.052.01a19.824,19.824,0,0,0-19.8,19.8c0,.018-.01.034-.01.052s.01.034.01.052a19.841,19.841,0,0,0,19.1,19.793h.027A.736.736,0,0,0,19.876,39Z"/><path class="c" d="M167.34,106.393a.736.736,0,0,0-1.04,0l-7.9,7.9a2.3,2.3,0,0,0-1.876,0l-3.742-3.742a.736.736,0,0,0-1.04,1.04l3.735,3.735a2.2,2.2,0,1,0,3.971,0l7.9-7.9A.736.736,0,0,0,167.34,106.393Zm-9.362,10.4h0a.752.752,0,0,1-1.04,0,.736.736,0,1,1,1.04,0Z" transform="translate(-137.598 -96.416)"/></g></g></svg>