<svg xmlns="http://www.w3.org/2000/svg" width="206.045" height="36.438" viewBox="0 0 206.045 36.438"><defs><style>.a{fill:#fff;}</style></defs><g transform="translate(-252.98 -367.679)"><g transform="translate(296.995 367.71)"><path class="a" d="M376.882,378.033a5.324,5.324,0,0,0-2.1-1.528,24.807,24.807,0,0,0-3.9-1.093,10.357,10.357,0,0,1-2.973-1.014,1.767,1.767,0,0,1-.888-1.583,2.207,2.207,0,0,1,1-1.915,4.706,4.706,0,0,1,2.7-.684,11.3,11.3,0,0,1,4.665,1.146v-2.586a11.309,11.309,0,0,0-1.169-.468,11.061,11.061,0,0,0-3.5-.552,8.788,8.788,0,0,0-3.543.674A5.55,5.55,0,0,0,364.8,370.3a4.629,4.629,0,0,0-.839,2.711,4.028,4.028,0,0,0,.69,2.415,4.992,4.992,0,0,0,2.05,1.563,18.05,18.05,0,0,0,3.55,1.081,15.3,15.3,0,0,1,3.347.989,1.68,1.68,0,0,1,.927,1.535,2.023,2.023,0,0,1-1,1.792,6.549,6.549,0,0,1-3.133.634,10.176,10.176,0,0,1-3.059-.445,13.608,13.608,0,0,1-3.218-1.754v2.943a10.867,10.867,0,0,0,2.482,1.176,12.869,12.869,0,0,0,3.771.54,11.866,11.866,0,0,0,4.019-.625,5.232,5.232,0,0,0,2.4-1.784,4.551,4.551,0,0,0,.827-2.7A3.694,3.694,0,0,0,376.882,378.033Z" transform="translate(-363.959 -367.756)"/><path class="a" d="M413.1,387l-3.476-10.146h-1.97l-3.573,10.089-3.4-10.089h-2.826l5.009,14.09h2.248l3.456-9.742L412,390.948h2.248l5.029-14.09h-2.687Z" transform="translate(-384.412 -373.248)"/><rect class="a" width="2.791" height="14.09" transform="translate(36.895 3.61)"/><path class="a" d="M479.446,383.411a16.223,16.223,0,0,0-2.892-.882,8.133,8.133,0,0,1-2.329-.792,1.259,1.259,0,0,1-.642-1.142,1.606,1.606,0,0,1,.736-1.411,3.621,3.621,0,0,1,2.072-.521,9.023,9.023,0,0,1,3.707.922l.164.079v-2.386l-.065-.031a9.314,9.314,0,0,0-.968-.389,8.978,8.978,0,0,0-2.838-.448,7.155,7.155,0,0,0-2.887.55,4.572,4.572,0,0,0-1.955,1.543,3.836,3.836,0,0,0-.7,2.248,3.357,3.357,0,0,0,.578,2.014,4.134,4.134,0,0,0,1.695,1.3,14.557,14.557,0,0,0,2.864.872,9.306,9.306,0,0,1,2.382.774,1.193,1.193,0,0,1,.668,1.1,1.461,1.461,0,0,1-.733,1.31,4.069,4.069,0,0,1-2.174.483,8.971,8.971,0,0,1-2.4-.348,13.6,13.6,0,0,1-2.522-1.218l0,2.558.052.033a6.849,6.849,0,0,0,1.793.79,10.4,10.4,0,0,0,3.054.438,8.177,8.177,0,0,0,3.013-.51,4.318,4.318,0,0,0,1.978-1.475,3.774,3.774,0,0,0,.687-2.238,3.092,3.092,0,0,0-.61-1.958A4.391,4.391,0,0,0,479.446,383.411Z" transform="translate(-428.457 -372.978)"/><path class="a" d="M512.667,383.411a16.223,16.223,0,0,0-2.892-.882,8.137,8.137,0,0,1-2.33-.792,1.259,1.259,0,0,1-.642-1.142,1.605,1.605,0,0,1,.736-1.411,3.621,3.621,0,0,1,2.071-.521,9.026,9.026,0,0,1,3.707.922l.163.079v-2.386l-.065-.031a9.314,9.314,0,0,0-.968-.389,8.979,8.979,0,0,0-2.838-.448,7.157,7.157,0,0,0-2.887.55,4.574,4.574,0,0,0-1.955,1.543,3.836,3.836,0,0,0-.7,2.248,3.356,3.356,0,0,0,.578,2.014,4.137,4.137,0,0,0,1.695,1.3,14.555,14.555,0,0,0,2.864.872,9.307,9.307,0,0,1,2.382.774,1.193,1.193,0,0,1,.668,1.1,1.462,1.462,0,0,1-.733,1.31,4.071,4.071,0,0,1-2.174.483,8.968,8.968,0,0,1-2.4-.348,13.589,13.589,0,0,1-2.522-1.218l0,2.558.052.033a6.851,6.851,0,0,0,1.793.79,10.4,10.4,0,0,0,3.054.438,8.176,8.176,0,0,0,3.013-.51,4.313,4.313,0,0,0,1.978-1.475,3.773,3.773,0,0,0,.687-2.238,3.092,3.092,0,0,0-.61-1.958A4.39,4.39,0,0,0,512.667,383.411Z" transform="translate(-448.502 -372.978)"/><path class="a" d="M557.851,385.793l-4.74-8.936H550.9v14.09h2.493l-.019-8.73,3.534,6.488h1.845l3.514-6.581v8.822h2.493v-14.09h-2.189Z" transform="translate(-476.759 -373.248)"/><path class="a" d="M592.763,390.948h9.607v-2.233h-6.875v-3.824h6.478v-2.213h-6.478V379.09h6.875v-2.233h-9.607Z" transform="translate(-502.018 -373.248)"/><path class="a" d="M628.116,376.857h-5.28v14.091h5.28a7.517,7.517,0,0,0,5.415-1.861,7.934,7.934,0,0,0,0-10.379A7.541,7.541,0,0,0,628.116,376.857Zm-2.489,2.292h2.331c3.172,0,4.715,1.552,4.715,4.743s-1.542,4.763-4.715,4.763h-2.331Z" transform="translate(-520.164 -373.247)"/><rect class="a" width="2.791" height="14.09" transform="translate(117.545 3.61)"/><path class="a" d="M679.842,378.7a8.522,8.522,0,0,1,2.231.363,11.331,11.331,0,0,1,1.755.677l-.019-2.443a11.4,11.4,0,0,0-1.315-.51,8.791,8.791,0,0,0-2.691-.378,7.322,7.322,0,0,0-3.663.89,6.014,6.014,0,0,0-2.41,2.524,9.056,9.056,0,0,0,0,7.605,6,6,0,0,0,2.41,2.535,7.318,7.318,0,0,0,3.663.89,8.97,8.97,0,0,0,4.006-.889l.025-2.443a10.493,10.493,0,0,1-3.991,1.04,3.812,3.812,0,0,1-3.043-1.258,6.806,6.806,0,0,1,0-7.346A3.789,3.789,0,0,1,679.842,378.7Z" transform="translate(-550.368 -372.978)"/><path class="a" d="M712.813,376.857H710.58l-6.443,14.091h2.835l1.411-3.245h6.667l1.411,3.245h2.8Zm1.284,8.652h-4.78l2.39-5.5Z" transform="translate(-569.22 -373.247)"/><g transform="translate(151.833 0.552)"><path class="a" d="M749.53,369.149h-2.742V386.3h10.2v-2.36H749.53Z" transform="translate(-746.788 -369.149)"/></g></g><g transform="translate(297.168 389.596)"><path class="a" d="M627.042,433.738a2.09,2.09,0,0,0-1.257-.3h-1.931v2.507h1.931a2.056,2.056,0,0,0,1.257-.3,1.363,1.363,0,0,0,0-1.906Z" transform="translate(-520.951 -429.276)"/><path class="a" d="M685.37,433.214a2.177,2.177,0,0,0-1.795.794,4.459,4.459,0,0,0,.006,4.62,2.4,2.4,0,0,0,3.584,0,4.422,4.422,0,0,0,.006-4.62A2.2,2.2,0,0,0,685.37,433.214Z" transform="translate(-556.599 -429.139)"/><path class="a" d="M364.395,422.939v14.522H526.252V422.939Zm12.1,11.111a4.586,4.586,0,0,1-2.787.743,7.135,7.135,0,0,1-2-.278,4.728,4.728,0,0,1-1.594-.769l.648-1.434a5.086,5.086,0,0,0,2.968.917,2.561,2.561,0,0,0,1.316-.278.858.858,0,0,0,.46-.769.759.759,0,0,0-.421-.685,5.65,5.65,0,0,0-1.5-.478,8.278,8.278,0,0,1-1.925-.595,2.513,2.513,0,0,1-1.05-.859,2.273,2.273,0,0,1-.33-1.26,2.477,2.477,0,0,1,.46-1.473,3.062,3.062,0,0,1,1.289-1.015,4.694,4.694,0,0,1,1.918-.368,6.189,6.189,0,0,1,1.873.284,3.851,3.851,0,0,1,1.432.762l-.648,1.435a4.419,4.419,0,0,0-2.644-.917,2.215,2.215,0,0,0-1.244.3.952.952,0,0,0-.454.834.748.748,0,0,0,.175.51,1.458,1.458,0,0,0,.583.355,8.873,8.873,0,0,0,1.16.323,6.458,6.458,0,0,1,2.534,1,2.02,2.02,0,0,1,.771,1.68A2.4,2.4,0,0,1,376.5,434.05Zm24.332-6.92H396.5v2.132h4.07v1.564H396.5v2.287h4.328v1.563h-6.3v-9.11h6.3Zm24.78,6.978a6.438,6.438,0,0,1-1.556.5,9.26,9.26,0,0,1-1.84.181,5.308,5.308,0,0,1-2.515-.562,3.881,3.881,0,0,1-1.633-1.615,5.739,5.739,0,0,1-.006-4.975,3.9,3.9,0,0,1,1.613-1.622,5.07,5.07,0,0,1,2.45-.568,5.993,5.993,0,0,1,1.834.271,4.006,4.006,0,0,1,1.406.75l-.635,1.434a4.748,4.748,0,0,0-1.238-.652,4.117,4.117,0,0,0-1.3-.2q-2.644,0-2.644,3.063a3.46,3.46,0,0,0,.687,2.352,2.625,2.625,0,0,0,2.073.775,5.866,5.866,0,0,0,1.491-.194v-2H422v-1.4h3.6Zm23.749-3.192a3.867,3.867,0,0,1-1.011,2.882,4.813,4.813,0,0,1-5.852.006,3.876,3.876,0,0,1-1-2.888v-5.35h1.983v5.441a2.434,2.434,0,0,0,.5,1.654,2.12,2.12,0,0,0,2.9-.006,2.418,2.418,0,0,0,.506-1.648v-5.441h1.983Zm21.7,3.761-1.581-2.908a1.235,1.235,0,0,0-.467-.485,1.425,1.425,0,0,0-.687-.149h-1v3.541h-2v-9.11h4.2a3.649,3.649,0,0,1,2.43.7,2.532,2.532,0,0,1,.823,2.035,2.628,2.628,0,0,1-.577,1.732,2.763,2.763,0,0,1-1.627.917,2,2,0,0,1,1.206,1.021l1.477,2.7Zm26.024-2.087a3.893,3.893,0,0,1-1.549,1.629,5.156,5.156,0,0,1-4.731,0,3.9,3.9,0,0,1-1.549-1.629,5.9,5.9,0,0,1,0-4.949,3.856,3.856,0,0,1,1.549-1.622,5.207,5.207,0,0,1,4.731,0,3.853,3.853,0,0,1,1.549,1.622,5.9,5.9,0,0,1,0,4.949Zm22.647,1.46a4.586,4.586,0,0,1-2.787.743,7.134,7.134,0,0,1-2-.278,4.724,4.724,0,0,1-1.594-.769l.648-1.434a5.083,5.083,0,0,0,2.968.917,2.559,2.559,0,0,0,1.316-.278.858.858,0,0,0,.46-.769.759.759,0,0,0-.421-.685,5.647,5.647,0,0,0-1.5-.478,8.286,8.286,0,0,1-1.925-.595,2.512,2.512,0,0,1-1.05-.859,2.273,2.273,0,0,1-.33-1.26,2.476,2.476,0,0,1,.46-1.473,3.064,3.064,0,0,1,1.29-1.015,4.693,4.693,0,0,1,1.918-.368,6.185,6.185,0,0,1,1.873.284,3.848,3.848,0,0,1,1.432.762l-.648,1.435a4.416,4.416,0,0,0-2.644-.917,2.217,2.217,0,0,0-1.245.3.953.953,0,0,0-.453.834.748.748,0,0,0,.175.51,1.453,1.453,0,0,0,.583.355,8.884,8.884,0,0,0,1.16.323,6.455,6.455,0,0,1,2.534,1,2.02,2.02,0,0,1,.771,1.68A2.4,2.4,0,0,1,519.728,434.05Z" transform="translate(-364.395 -422.939)"/></g><g transform="translate(252.98 367.679)"><g transform="translate(0 23.368)"><rect class="a" width="12.984" height="12.984"/></g><rect class="a" width="12.984" height="12.984"/><g transform="translate(23.371 23.368)"><rect class="a" width="12.984" height="12.984"/></g><g transform="translate(23.371)"><rect class="a" width="12.984" height="12.984"/></g></g></g></svg>