<svg xmlns="http://www.w3.org/2000/svg" xmlns:xlink="http://www.w3.org/1999/xlink" width="158.859" height="158.859" viewBox="0 0 158.859 158.859"><defs><style>.a{fill:#fff;}.b{fill:#666;}.c{fill:#e4002b;}.d{filter:url(#a);}</style><filter id="a" x="0" y="0" width="158.859" height="158.859" filterUnits="userSpaceOnUse"><feOffset dy="3" input="SourceAlpha"/><feGaussianBlur stdDeviation="3" result="b"/><feFlood flood-opacity="0.161"/><feComposite operator="in" in2="b"/><feComposite in="SourceGraphic"/></filter></defs><g transform="translate(-927 -1103)"><g transform="translate(936 1109)"><g class="d" transform="matrix(1, 0, 0, 1, -9, -6)"><ellipse class="a" cx="70.43" cy="70.43" rx="70.43" ry="70.43" transform="translate(9 6)"/></g></g><g transform="translate(973.314 1148.33)"><g transform="translate(12.093 5.777)"><g transform="translate(0 0)"><path class="b" d="M71.3,22.464a3.183,3.183,0,0,0-1.764-5.429L58.974,15.5a.636.636,0,0,1-.479-.348L53.772,5.584a3.183,3.183,0,0,0-5.708,0l-4.723,9.569a.637.637,0,0,1-.479.348L32.3,17.036a3.183,3.183,0,0,0-1.764,5.429l7.641,7.448a.637.637,0,0,1,.183.563l-1.8,10.517a3.183,3.183,0,0,0,4.618,3.355l9.445-4.966a.636.636,0,0,1,.593,0l9.445,4.966a3.183,3.183,0,0,0,4.618-3.355l-1.8-10.517a.637.637,0,0,1,.183-.563ZM60.964,30.907l1.8,10.517a.636.636,0,0,1-.924.671L52.4,37.13a3.183,3.183,0,0,0-2.962,0L39.992,42.1a.636.636,0,0,1-.924-.671l1.8-10.517a3.182,3.182,0,0,0-.915-2.817l-7.641-7.448a.637.637,0,0,1,.353-1.086l10.56-1.534a3.182,3.182,0,0,0,2.4-1.741l4.723-9.569a.637.637,0,0,1,1.142,0h0l4.723,9.569a3.182,3.182,0,0,0,2.4,1.741l10.56,1.534a.637.637,0,0,1,.353,1.086L61.879,28.09A3.182,3.182,0,0,0,60.964,30.907Z" transform="translate(-29.574 -3.81)"/></g></g><g transform="translate(49.371 0.01)"><g transform="translate(0 0)"><path class="c" d="M382.674,20.382a1.764,1.764,0,0,0-2.464.39l-1.873,2.577a1.764,1.764,0,0,0,2.854,2.074l1.873-2.577A1.764,1.764,0,0,0,382.674,20.382Z" transform="translate(-378.001 -20.045)"/></g></g><g transform="translate(12.093)"><g transform="translate(0 0)"><path class="c" d="M97.654,23.271l-1.873-2.577a1.764,1.764,0,0,0-2.854,2.074L94.8,25.344a1.764,1.764,0,1,0,2.854-2.074Z" transform="translate(-92.59 -19.966)"/></g></g><g transform="translate(0 36.248)"><path class="c" d="M6.472,298.713a1.764,1.764,0,0,0-2.223-1.133l-3.03.984a1.764,1.764,0,1,0,1.09,3.355l3.03-.985A1.764,1.764,0,0,0,6.472,298.713Z" transform="translate(0 -297.493)"/></g><g transform="translate(31.673 57.053)"><path class="c" d="M244.263,456.786a1.764,1.764,0,0,0-1.764,1.764v3.186a1.764,1.764,0,1,0,3.528,0V458.55A1.764,1.764,0,0,0,244.263,456.786Z" transform="translate(-242.499 -456.786)"/></g><g transform="translate(60.314 36.25)"><path class="c" d="M467.123,298.584l-3.03-.985a1.764,1.764,0,0,0-1.09,3.355l3.03.985a1.764,1.764,0,0,0,1.09-3.355Z" transform="translate(-461.783 -297.513)"/></g></g></g></svg>