<svg xmlns="http://www.w3.org/2000/svg" width="195.344" height="195.344" viewBox="0 0 195.344 195.344"><defs><style>.a{fill:#fff;}.b{fill:#6f6f6e;}.c{fill:#e4002b;}</style></defs><g transform="translate(-746.328 -666.328)"><circle class="a" cx="97.672" cy="97.672" r="97.672" transform="translate(746.328 666.328)"/><g transform="translate(765.625 741.821)"><g transform="translate(0)"><g transform="translate(0.478 28.319)"><rect class="b" width="157.31" height="15.225"/></g><g transform="translate(100.062 0.139)"><path class="b" d="M573.693,351.5v16.54q0,2.573.538,2.572h9.781V373.7h-9.781q-3.948,0-3.948-5.653V351.5Z" transform="translate(-570.284 -351.503)"/><path class="b" d="M623.557,351.589v22.223h-3.29V351.589Z" transform="translate(-602.859 -351.559)"/><path class="b" d="M657.361,354.67H646.653q-.9,0-.9,1.077v5.474H654.7V364.3h-8.943v9.512h-3.29V355.746q0-4.157,4.187-4.157l10.708.239Z" transform="translate(-617.326 -351.559)"/><path class="b" d="M708.5,354.751H697.789q-.9,0-.9,1.077v5.534h8.943V364.2h-8.943V369.8q0,1.047.9,1.047h10.648v2.812l-10.648.239q-4.188,0-4.187-4.1V355.827q0-4.157,4.187-4.157l10.708.239Z" transform="translate(-650.652 -351.612)"/></g><g transform="translate(0 0.008)"><path class="b" d="M299.295,364.139a6.718,6.718,0,0,0-2.651-1.934,31.227,31.227,0,0,0-4.925-1.384,13.055,13.055,0,0,1-3.752-1.284,2.238,2.238,0,0,1-1.122-2,2.8,2.8,0,0,1,1.261-2.424,5.928,5.928,0,0,1,3.4-.865,14.233,14.233,0,0,1,5.889,1.45v-3.273a14.382,14.382,0,0,0-1.476-.593,13.933,13.933,0,0,0-4.413-.7,11.055,11.055,0,0,0-4.472.853,7,7,0,0,0-2.995,2.368,5.872,5.872,0,0,0-1.059,3.432,5.109,5.109,0,0,0,.87,3.058,6.3,6.3,0,0,0,2.587,1.979,22.743,22.743,0,0,0,4.481,1.368,19.282,19.282,0,0,1,4.225,1.252,2.128,2.128,0,0,1,1.17,1.943,2.562,2.562,0,0,1-1.263,2.269,8.243,8.243,0,0,1-3.955.8,12.788,12.788,0,0,1-3.861-.564,17.158,17.158,0,0,1-4.063-2.22v3.726a13.7,13.7,0,0,0,3.133,1.489,16.184,16.184,0,0,0,4.759.684,14.933,14.933,0,0,0,5.073-.792,6.6,6.6,0,0,0,3.025-2.258,5.772,5.772,0,0,0,1.043-3.417A4.685,4.685,0,0,0,299.295,364.139Z" transform="translate(-282.984 -351.128)"/></g><path class="b" d="M359.233,352.95h3.136v21.776H358.83V360.369L353.055,371.3h-2.67l-5.805-10.772.031,14.2h-3.54V352.95h3.167l7.513,14.311Z" transform="translate(-320.841 -352.307)"/><path class="b" d="M430.179,361.444v10.494a14.692,14.692,0,0,1-3.617,1.18,21.573,21.573,0,0,1-4.331.435,12.105,12.105,0,0,1-5.868-1.351,9.111,9.111,0,0,1-3.8-3.881,14.265,14.265,0,0,1,0-11.985,9.184,9.184,0,0,1,3.757-3.881,11.632,11.632,0,0,1,5.728-1.351,14.733,14.733,0,0,1,4.485.6c1.071.355,2.412.918,2.412.918l0,3.5a15.052,15.052,0,0,0-6.805-1.76,6.559,6.559,0,0,0-5.108,2q-1.723,2-1.723,5.946,0,8.073,7.079,8.073a15.616,15.616,0,0,0,4.223-.59v-5.5h-4.719v-2.857Z" transform="translate(-366.57 -351.105)"/><g transform="translate(70.536 0.139)"><g transform="translate(0 14.341)"><rect class="c" width="7.968" height="7.968"/></g><rect class="c" width="7.968" height="7.968"/><g transform="translate(14.343 14.341)"><rect class="c" width="7.968" height="7.968"/></g><g transform="translate(14.343)"><rect class="c" width="7.968" height="7.968"/></g></g></g><g transform="translate(5.1 32.923)"><g transform="translate(0 0)"><path class="a" d="M302.655,445.848h1.094l-2.623,5.888h-.877l-2.623-5.888h1.111l1.954,4.552Z" transform="translate(-297.627 -445.773)"/><path class="a" d="M337.7,451.736v-5.888h1.078v5.888Z" transform="translate(-323.743 -445.773)"/><path class="a" d="M365.348,445.848h2.172a3.091,3.091,0,0,1,2.243.772,3.349,3.349,0,0,1,0,4.339,3.078,3.078,0,0,1-2.243.777h-2.172Zm2.1,5.011a2.068,2.068,0,0,0,0-4.134h-1.027v4.134Z" transform="translate(-341.762 -445.773)"/><path class="a" d="M407.224,451.736l-.593-1.378h-2.865l-.593,1.378h-1.086l2.664-5.888h.877l2.664,5.888Zm-3.107-2.213h2.155l-1.078-2.506Z" transform="translate(-365.705 -445.773)"/><path class="a" d="M473.136,445.848l-2.389,3.174v2.715h-1.077v-2.715l-2.381-3.174H468.5l1.7,2.314,1.713-2.314Z" transform="translate(-408.199 -445.773)"/><path class="a" d="M538.22,451.736h-1.17l-1.01-1.879a.86.86,0,0,0-.351-.376,1.135,1.135,0,0,0-.526-.109h-.819v2.364h-1.06v-5.888h2.606a2.284,2.284,0,0,1,1.524.447,1.6,1.6,0,0,1,.522,1.291,1.641,1.641,0,0,1-.38,1.115,1.82,1.82,0,0,1-1.073.572,1.217,1.217,0,0,1,.752.66Zm-1.587-3.42a.855.855,0,0,0,.284-.706.839.839,0,0,0-.284-.706,1.453,1.453,0,0,0-.894-.222h-1.4v1.863h1.4A1.416,1.416,0,0,0,536.633,448.316Z" transform="translate(-451.209 -445.773)"/><path class="a" d="M570.862,451.736v-5.888H574.8v.852h-2.89v1.621h2.723v.844h-2.723v1.721h2.89v.852Z" transform="translate(-475.699 -445.773)"/><path class="a" d="M606.307,451.736v-5h-1.921v-.886h4.919v.886h-1.921v5Z" transform="translate(-497.547 -445.773)"/><path class="a" d="M641.532,451.736v-5.888h1.078v5.888Z" transform="translate(-521.755 -445.773)"/><path class="a" d="M674.118,451.736h-1.169l-1.011-1.879a.858.858,0,0,0-.351-.376,1.134,1.134,0,0,0-.526-.109h-.819v2.364h-1.061v-5.888h2.605a2.284,2.284,0,0,1,1.525.447,1.606,1.606,0,0,1,.522,1.291,1.64,1.64,0,0,1-.38,1.115,1.822,1.822,0,0,1-1.073.572,1.218,1.218,0,0,1,.752.66Zm-1.587-3.42a.854.854,0,0,0,.284-.706.839.839,0,0,0-.284-.706,1.453,1.453,0,0,0-.894-.222h-1.4v1.863h1.4A1.416,1.416,0,0,0,672.531,448.316Z" transform="translate(-539.775 -445.773)"/><path class="a" d="M707.427,451.3a2.458,2.458,0,0,1-.973-1.052,3.939,3.939,0,0,1,0-3.2,2.431,2.431,0,0,1,.973-1.048,3.217,3.217,0,0,1,2.986,0,2.439,2.439,0,0,1,.969,1.048,3.936,3.936,0,0,1,0,3.2,2.457,2.457,0,0,1-.973,1.052,3.192,3.192,0,0,1-2.974,0Zm2.756-1.052a3.045,3.045,0,0,0,0-3.2,1.729,1.729,0,0,0-2.539,0,3.045,3.045,0,0,0,0,3.2,1.72,1.72,0,0,0,2.539,0Z" transform="translate(-563.843 -445.633)"/></g></g></g></g></svg>