<svg xmlns="http://www.w3.org/2000/svg" width="195.344" height="195.344" viewBox="0 0 195.344 195.344"><defs><style>.a{fill:#fff;}.b{fill:#e4002b;}.c{fill:#6f6f6e;}</style></defs><g transform="translate(-451.328 -666.328)"><circle class="a" cx="97.672" cy="97.672" r="97.672" transform="translate(451.328 666.328)"/><g transform="translate(486.166 734.033)"><g transform="translate(0 0.188)"><g transform="translate(0 19.467)"><rect class="b" width="10.816" height="10.816"/></g><rect class="b" width="10.816" height="10.816"/><g transform="translate(19.469 19.467)"><rect class="b" width="10.816" height="10.816"/></g><g transform="translate(19.469)"><rect class="b" width="10.816" height="10.816"/></g></g><g transform="translate(0.008)"><g transform="translate(39.571)"><g transform="translate(0 0.011)"><path class="c" d="M481.315,368.79a9.116,9.116,0,0,0-3.6-2.625,42.388,42.388,0,0,0-6.685-1.879,17.7,17.7,0,0,1-5.094-1.743,3.038,3.038,0,0,1-1.523-2.721,3.8,3.8,0,0,1,1.712-3.29,8.047,8.047,0,0,1,4.62-1.175,19.323,19.323,0,0,1,7.994,1.969v-4.444a19.687,19.687,0,0,0-2-.8,18.911,18.911,0,0,0-5.99-.949,15.012,15.012,0,0,0-6.07,1.158,9.511,9.511,0,0,0-4.066,3.215,7.969,7.969,0,0,0-1.438,4.659,6.936,6.936,0,0,0,1.182,4.151A8.56,8.56,0,0,0,463.867,367a30.863,30.863,0,0,0,6.083,1.857,26.185,26.185,0,0,1,5.735,1.7,2.889,2.889,0,0,1,1.589,2.638,3.478,3.478,0,0,1-1.714,3.08,11.187,11.187,0,0,1-5.368,1.089,17.376,17.376,0,0,1-5.242-.765,23.286,23.286,0,0,1-5.515-3.014v5.057a18.589,18.589,0,0,0,4.253,2.021,21.964,21.964,0,0,0,6.461.928,20.281,20.281,0,0,0,6.886-1.074,8.967,8.967,0,0,0,4.106-3.066,7.837,7.837,0,0,0,1.416-4.638A6.358,6.358,0,0,0,481.315,368.79Z" transform="translate(-459.173 -351.128)"/></g><path class="c" d="M541.9,352.95h4.257v29.56h-4.8V363.022l-7.838,14.834h-3.624l-7.88-14.623.042,19.278h-4.8V352.95h4.3l10.2,19.427Z" transform="translate(-489.788 -352.078)"/><path class="c" d="M613.114,365.14v14.246a19.964,19.964,0,0,1-4.91,1.6,29.286,29.286,0,0,1-5.88.59,16.435,16.435,0,0,1-7.966-1.833,12.371,12.371,0,0,1-5.163-5.268,19.366,19.366,0,0,1,0-16.269,12.47,12.47,0,0,1,5.1-5.269,15.791,15.791,0,0,1,7.775-1.833,19.991,19.991,0,0,1,6.088.813c1.454.481,3.274,1.246,3.274,1.246l0,4.756a20.422,20.422,0,0,0-9.238-2.389c-3.062.077-5.374.906-6.933,2.719s-2.339,4.5-2.339,8.071q0,10.959,9.609,10.958a21.2,21.2,0,0,0,5.732-.8v-7.46h-6.406V365.14Z" transform="translate(-526.768 -351.105)"/></g><g transform="translate(0 38.453)"><rect class="c" width="125.927" height="20.667"/></g></g><g transform="translate(40.249 43.025)"><path class="a" d="M470.5,453.451l-1.144-2.658h-5.526l-1.144,2.658h-2.094l5.14-11.358h1.692l5.139,11.358Zm-5.993-4.27h4.156l-2.078-4.833Z" transform="translate(-460.588 -442.093)"/><path class="a" d="M546.918,453.451h-2.256l-1.95-3.625a1.654,1.654,0,0,0-.677-.725,2.189,2.189,0,0,0-1.015-.209h-1.579v4.559H537.4V442.093h5.027a4.407,4.407,0,0,1,2.94.862,3.1,3.1,0,0,1,1.007,2.489,3.166,3.166,0,0,1-.733,2.151,3.514,3.514,0,0,1-2.07,1.1,2.346,2.346,0,0,1,1.45,1.273Zm-3.061-6.6a1.647,1.647,0,0,0,.548-1.361,1.62,1.62,0,0,0-.548-1.361,2.805,2.805,0,0,0-1.724-.427h-2.707V447.3h2.707A2.727,2.727,0,0,0,543.857,446.854Z" transform="translate(-501.076 -442.093)"/><path class="a" d="M615.355,453.451V443.8h-3.706v-1.708h9.49V443.8h-3.705v9.65Z" transform="translate(-540.217 -442.093)"/></g></g></g></svg>