<svg xmlns="http://www.w3.org/2000/svg" width="195.344" height="195.344" viewBox="0 0 195.344 195.344"><defs><style>.a{fill:#fff;}.b{fill:#6f6f6e;}.c{fill:#e4002b;}</style></defs><g transform="translate(-156.328 -666.328)"><circle class="a" cx="97.672" cy="97.672" r="97.672" transform="translate(156.328 666.328)"/><g transform="translate(191.201 734.033)"><g transform="translate(0 38.438)"><rect class="b" width="126.026" height="20.682"/></g><g transform="translate(39.608)"><g transform="translate(0 0.011)"><path class="b" d="M476.8,368.8a9.128,9.128,0,0,0-3.6-2.627,42.4,42.4,0,0,0-6.69-1.88,17.719,17.719,0,0,1-5.1-1.744,3.041,3.041,0,0,1-1.524-2.723,3.8,3.8,0,0,1,1.713-3.293,8.048,8.048,0,0,1,4.624-1.176,19.336,19.336,0,0,1,8,1.97v-4.447a19.618,19.618,0,0,0-2-.8,18.91,18.91,0,0,0-5.995-.95,15.026,15.026,0,0,0-6.075,1.159,9.518,9.518,0,0,0-4.069,3.217,7.976,7.976,0,0,0-1.439,4.662,6.941,6.941,0,0,0,1.183,4.154,8.564,8.564,0,0,0,3.515,2.689,30.837,30.837,0,0,0,6.088,1.859,26.2,26.2,0,0,1,5.739,1.7,2.891,2.891,0,0,1,1.59,2.64,3.48,3.48,0,0,1-1.716,3.082,11.2,11.2,0,0,1-5.372,1.09,17.385,17.385,0,0,1-5.246-.765,23.347,23.347,0,0,1-5.519-3.016v5.061a18.617,18.617,0,0,0,4.256,2.023,22,22,0,0,0,6.466.929,20.287,20.287,0,0,0,6.892-1.075,8.968,8.968,0,0,0,4.109-3.068,7.841,7.841,0,0,0,1.418-4.641A6.366,6.366,0,0,0,476.8,368.8Z" transform="translate(-454.647 -351.128)"/></g><path class="b" d="M537.439,352.951h4.26v29.582h-4.808v-19.5l-7.844,14.844H525.42l-7.886-14.633.043,19.292h-4.808V352.951h4.3l10.206,19.441Z" transform="translate(-485.284 -352.078)"/><path class="b" d="M608.7,365.15v14.256a19.972,19.972,0,0,1-4.914,1.6,29.293,29.293,0,0,1-5.884.591,16.441,16.441,0,0,1-7.972-1.835,12.375,12.375,0,0,1-5.167-5.272,19.378,19.378,0,0,1,0-16.28,12.476,12.476,0,0,1,5.1-5.273,15.8,15.8,0,0,1,7.781-1.835,20.021,20.021,0,0,1,6.092.814c1.455.481,3.276,1.247,3.276,1.247l0,4.759a20.437,20.437,0,0,0-9.245-2.391c-3.065.077-5.378.906-6.938,2.72s-2.341,4.506-2.341,8.077q0,10.966,9.616,10.966a21.212,21.212,0,0,0,5.736-.8v-7.465H597.44v-3.88Z" transform="translate(-522.292 -351.105)"/></g><g transform="translate(0 0.188)"><g transform="translate(0 19.482)"><rect class="c" width="10.824" height="10.824"/></g><rect class="c" width="10.824" height="10.824"/><g transform="translate(19.484 19.482)"><rect class="c" width="10.824" height="10.824"/></g><g transform="translate(19.484)"><rect class="c" width="10.824" height="10.824"/></g></g><g transform="translate(4.828 42.948)"><g transform="translate(0 0)"><path class="a" d="M383.031,453.232a5.667,5.667,0,0,1-1.935-1l.693-1.516a5.7,5.7,0,0,0,1.734.919,6.473,6.473,0,0,0,1.975.29,3.348,3.348,0,0,0,1.814-.411,1.3,1.3,0,0,0,.637-1.153,1.075,1.075,0,0,0-.589-.984,7.513,7.513,0,0,0-1.959-.645,11.605,11.605,0,0,1-2.306-.71,3.251,3.251,0,0,1-1.338-1.032,2.665,2.665,0,0,1-.452-1.6,3.066,3.066,0,0,1,.548-1.79,3.614,3.614,0,0,1,1.548-1.233,5.645,5.645,0,0,1,2.305-.443,7.09,7.09,0,0,1,2.274.363,4.945,4.945,0,0,1,1.773.992l-.693,1.516a5.252,5.252,0,0,0-3.354-1.209,2.989,2.989,0,0,0-1.733.443,1.42,1.42,0,0,0-.637,1.234,1.13,1.13,0,0,0,.565,1.016,6.62,6.62,0,0,0,1.918.661,12.913,12.913,0,0,1,2.33.717,3.454,3.454,0,0,1,1.37,1.008,2.448,2.448,0,0,1,.476,1.548,3.014,3.014,0,0,1-.54,1.782,3.411,3.411,0,0,1-1.564,1.177,6.447,6.447,0,0,1-2.411.411A8.235,8.235,0,0,1,383.031,453.232Z" transform="translate(-381.096 -441.93)"/><path class="a" d="M418.294,453.6V442.236h7.61v1.645h-5.578v3.128h5.256v1.629h-5.256v3.321H425.9V453.6Z" transform="translate(-400.704 -442.091)"/><path class="a" d="M461.715,447.3v5.449a7.621,7.621,0,0,1-1.878.613,11.214,11.214,0,0,1-2.249.226,6.282,6.282,0,0,1-3.047-.7,4.729,4.729,0,0,1-1.975-2.015,7.408,7.408,0,0,1,0-6.223,4.768,4.768,0,0,1,1.951-2.015,6.04,6.04,0,0,1,2.975-.7,7.089,7.089,0,0,1,2.241.347,4.665,4.665,0,0,1,1.741.992l-.693,1.5a5.524,5.524,0,0,0-1.556-.879,5.1,5.1,0,0,0-1.685-.266,3.308,3.308,0,0,0-2.652,1.04,4.624,4.624,0,0,0-.895,3.088q0,4.192,3.676,4.191a8.118,8.118,0,0,0,2.194-.306v-2.854H457.41V447.3Z" transform="translate(-418.408 -441.93)"/><path class="a" d="M493.015,452.539a4.784,4.784,0,0,1-1.21-3.531v-6.772h2.032v6.885a3.16,3.16,0,0,0,.693,2.217,2.632,2.632,0,0,0,2.032.75,2.6,2.6,0,0,0,2.015-.758,3.168,3.168,0,0,0,.693-2.209v-6.885H501.3v6.772a5.019,5.019,0,0,1-8.288,3.531Z" transform="translate(-439.454 -442.091)"/><path class="a" d="M540.783,453.6h-2.258l-1.951-3.627a1.662,1.662,0,0,0-.677-.726,2.193,2.193,0,0,0-1.016-.209H533.3V453.6h-2.048V442.236h5.03a4.411,4.411,0,0,1,2.943.863,3.1,3.1,0,0,1,1.008,2.491,3.168,3.168,0,0,1-.734,2.152,3.52,3.52,0,0,1-2.072,1.1,2.348,2.348,0,0,1,1.451,1.274ZM537.72,447a1.649,1.649,0,0,0,.548-1.362,1.622,1.622,0,0,0-.548-1.362,2.809,2.809,0,0,0-1.725-.427h-2.709v3.6h2.709A2.727,2.727,0,0,0,537.72,447Z" transform="translate(-460.249 -442.091)"/><path class="a" d="M570.891,452.877a4.745,4.745,0,0,1-1.878-2.031,7.607,7.607,0,0,1-.008-6.183,4.7,4.7,0,0,1,1.878-2.023,6.211,6.211,0,0,1,5.765,0,4.711,4.711,0,0,1,1.87,2.023,7.6,7.6,0,0,1-.009,6.183,4.747,4.747,0,0,1-1.878,2.031,6.158,6.158,0,0,1-5.74,0Zm5.321-2.031a5.876,5.876,0,0,0,0-6.183,3.337,3.337,0,0,0-4.9,0,5.879,5.879,0,0,0,0,6.183,3.32,3.32,0,0,0,4.9,0Z" transform="translate(-479.804 -441.93)"/><path class="a" d="M610.792,453.232a5.666,5.666,0,0,1-1.935-1l.694-1.516a5.692,5.692,0,0,0,1.733.919,6.476,6.476,0,0,0,1.975.29,3.348,3.348,0,0,0,1.813-.411,1.3,1.3,0,0,0,.637-1.153,1.075,1.075,0,0,0-.589-.984,7.514,7.514,0,0,0-1.959-.645,11.615,11.615,0,0,1-2.306-.71,3.254,3.254,0,0,1-1.338-1.032,2.665,2.665,0,0,1-.452-1.6,3.063,3.063,0,0,1,.549-1.79,3.612,3.612,0,0,1,1.547-1.233,5.645,5.645,0,0,1,2.305-.443,7.088,7.088,0,0,1,2.274.363,4.942,4.942,0,0,1,1.773.992l-.693,1.516a5.25,5.25,0,0,0-3.354-1.209,2.989,2.989,0,0,0-1.733.443,1.421,1.421,0,0,0-.636,1.234,1.131,1.131,0,0,0,.564,1.016,6.624,6.624,0,0,0,1.919.661,12.919,12.919,0,0,1,2.329.717,3.456,3.456,0,0,1,1.371,1.008,2.451,2.451,0,0,1,.476,1.548,3.014,3.014,0,0,1-.54,1.782,3.408,3.408,0,0,1-1.564,1.177,6.447,6.447,0,0,1-2.411.411A8.235,8.235,0,0,1,610.792,453.232Z" transform="translate(-501.156 -441.93)"/></g></g></g></g></svg>